<svg xmlns="http://www.w3.org/2000/svg" width="1163" height="1025" viewBox="0 0 217.000 191.127">
  <rect width="100%" height="100%" fill="white"/>
  <g fill="none" stroke="black" stroke-width="2.0" stroke-linecap="round" stroke-linejoin="round">
  <path d="M 62.552 13.000 L 62.466 13.515 L 62.338 13.987 L 62.294 14.269 L 62.251 14.546 L 62.166 15.105 L 62.037 15.702 L 61.951 16.431 L 61.888 16.815 L 61.823 17.204 L 61.693 17.977 L 61.608 18.662 L 61.522 19.523 L 61.480 19.944 L 61.436 20.378 L 61.308 21.365 L 61.136 22.483 L 61.007 23.551 L 60.904 24.155 L 60.792 24.796 L 60.621 25.958 L 60.450 27.159 L 60.235 28.447 L 60.126 29.094 L 60.020 29.729 L 59.806 30.892 L 59.635 31.960 L 59.505 32.991 L 59.442 33.418 L 59.377 33.852 L 59.291 34.537 L 59.206 35.222 L 59.120 35.869 L 59.076 36.189 L 59.033 36.510 L 58.948 37.113 L 58.905 37.585 L 58.862 38.012 L 58.841 38.182 L 58.819 38.357 L 58.819 38.741 L 58.819 38.741 L 58.819 38.741 L 58.819 38.741 L 58.991 38.439 L 58.991 38.439 L 58.991 38.439"/>
  <path d="M 50.239 24.712 L 50.239 24.712 L 50.239 24.712 L 50.196 24.198 L 50.217 23.920 L 50.239 23.640 L 50.325 23.039 L 50.411 22.396 L 50.582 21.753 L 50.645 21.420 L 50.710 21.065 L 50.925 20.380 L 51.140 19.822 L 51.397 19.308 L 51.523 19.077 L 51.654 18.836 L 51.912 18.406 L 52.127 17.977 L 52.341 17.547 L 52.445 17.361 L 52.555 17.163 L 52.770 16.775 L 52.942 16.433 L 53.113 16.132 L 53.178 15.983 L 53.242 15.832 L 53.370 15.574 L 53.499 15.318 L 53.585 15.102 L 53.585 15.102 L 53.585 15.102 L 53.757 14.760 L 53.928 14.588 L 53.972 14.544 L 53.972 14.544"/>
  <path d="M 55.001 25.270 L 55.172 25.270 L 55.559 25.313 L 55.907 25.408 L 56.030 25.442 L 56.288 25.527 L 56.546 25.656 L 56.846 25.741 L 56.971 25.783 L 57.102 25.828 L 57.361 25.914 L 57.618 25.956 L 57.937 26.020 L 58.048 26.042 L 58.476 25.956 L 58.764 25.829 L 58.862 25.785 L 58.862 25.785 L 59.205 25.485 L 59.420 25.270 L 59.420 25.270 L 59.420 25.270 L 59.720 24.927 L 59.720 24.927 L 59.978 24.584 L 59.978 24.584 L 59.978 24.584 L 60.149 24.283 L 60.149 24.283 L 60.149 24.283"/>
  <path d="M 49.123 25.742 L 49.123 25.742 L 49.423 25.871 L 49.725 25.956 L 49.915 25.978 L 50.111 25.999 L 50.454 25.956 L 50.882 25.956 L 51.269 25.914 L 51.491 25.893 L 51.740 25.871 L 52.211 25.785 L 52.685 25.699 L 53.113 25.613 L 53.316 25.552 L 53.543 25.484 L 53.929 25.356 L 54.314 25.270 L 54.659 25.184 L 54.819 25.144 L 55.002 25.098 L 55.302 25.013 L 55.601 24.969 L 55.860 24.927 L 55.963 24.906 L 56.073 24.884 L 56.374 24.798 L 56.533 24.766 L 56.588 24.755 L 56.588 24.755 L 56.780 24.755 L 56.846 24.755 L 56.846 24.755 L 56.846 24.755"/>
  <path d="M 43.374 42.441 L 43.285 42.332 L 43.285 42.332 L 43.285 42.332 L 43.285 42.332 L 43.159 42.087 L 43.159 42.087 L 43.063 41.897 L 43.033 41.842 L 43.033 41.842 L 43.033 41.842 L 42.900 41.734 L 42.900 41.734 L 42.900 41.734 L 42.603 41.516 L 42.455 41.435 L 42.344 41.353 L 42.091 41.190 L 42.047 41.135 L 42.047 41.135 L 41.698 40.918 L 41.698 40.918 L 41.698 40.918 L 41.357 40.755 L 41.357 40.755 L 41.061 40.619 L 41.061 40.619 L 41.061 40.619 L 40.712 40.510 L 40.712 40.510 L 40.416 40.401 L 40.416 40.401 L 40.416 40.401 L 40.074 40.374 L 40.074 40.374 L 40.074 40.374 L 39.770 40.320 L 39.770 40.320 L 39.548 40.293 L 39.474 40.293 L 39.170 40.238 L 38.947 40.211 L 38.873 40.211 L 38.614 40.157 L 38.361 40.184 L 38.272 40.211 L 37.924 40.238 L 37.672 40.265 L 37.583 40.293 L 37.242 40.374 L 37.242 40.374 L 37.093 40.401 L 36.938 40.456 L 36.641 40.537 L 36.381 40.673 L 36.292 40.728 L 35.996 40.891 L 35.773 41.054 L 35.692 41.108 L 35.692 41.108 L 35.440 41.353 L 35.247 41.543 L 35.180 41.625 L 34.921 41.870 L 34.765 42.114 L 34.706 42.223 L 34.535 42.522 L 34.379 42.767 L 34.320 42.848 L 34.320 42.848 L 34.149 43.256 L 34.068 43.447 L 34.001 43.555 L 33.934 43.664 L 33.808 43.936 L 33.719 44.181 L 33.593 44.480 L 33.534 44.643 L 33.467 44.779 L 33.334 45.078 L 33.208 45.377 L 33.081 45.703 L 33.015 45.839 L 32.948 46.003 L 32.866 46.302 L 32.733 46.601 L 32.651 46.900 L 32.607 47.036 L 32.562 47.199 L 32.481 47.498 L 32.392 47.743 L 32.303 48.042 L 32.288 48.205 L 32.266 48.341 L 32.221 48.640 L 32.177 48.939 L 32.132 49.265 L 32.095 49.401 L 32.051 49.564 L 32.006 49.891 L 31.962 50.244 L 31.917 50.571 L 31.880 50.761 L 31.836 50.978 L 31.791 51.359 L 31.747 51.740 L 31.702 52.175 L 31.665 52.392 L 31.621 52.610 L 31.576 53.018 L 31.532 53.453 L 31.487 53.888 L 31.472 54.078 L 31.450 54.268 L 31.406 54.649 L 31.361 55.057 L 31.317 55.465 L 31.302 55.655 L 31.279 55.845 L 31.235 56.280 L 31.235 56.661 L 31.191 57.096 L 31.191 57.341 L 31.191 57.586 L 31.146 58.102 L 31.146 58.592 L 31.102 59.108 L 31.087 59.407 L 31.064 59.679 L 31.020 60.223 L 30.975 60.794 L 30.975 61.338 L 30.953 61.610 L 30.931 61.909 L 30.886 62.453 L 30.886 62.969 L 30.849 63.486 L 30.827 63.731 L 30.805 63.975 L 30.805 64.438 L 30.805 64.900 L 30.805 65.335 L 30.805 65.580 L 30.805 65.824 L 30.805 66.287 L 30.760 66.749 L 30.760 67.238 L 30.738 67.456 L 30.716 67.700 L 30.716 68.217 L 30.716 68.734 L 30.679 69.250 L 30.657 69.495 L 30.634 69.767 L 30.590 70.283 L 30.590 70.827 L 30.545 71.398 L 30.523 71.670 L 30.501 71.942 L 30.501 72.513 L 30.464 73.057 L 30.464 73.628 L 30.442 73.900 L 30.419 74.226 L 30.375 74.770 L 30.375 75.368 L 30.330 75.939 L 30.315 76.211 L 30.286 76.537 L 30.286 77.108 L 30.286 77.652 L 30.249 78.223 L 30.249 78.495 L 30.249 78.767 L 30.249 79.338 L 30.249 79.827 L 30.249 80.344 L 30.249 80.616 L 30.249 80.861 L 30.286 81.350 L 30.330 81.812 L 30.375 82.274 L 30.397 82.492 L 30.419 82.709 L 30.464 83.145 L 30.501 83.525 L 30.545 83.906 L 30.568 84.096 L 30.590 84.314 L 30.634 84.694 L 30.679 85.129 L 30.716 85.537 L 30.738 85.782 L 30.760 86.027 L 30.805 86.489 L 30.849 86.951 L 30.886 87.441 L 30.886 87.685 L 30.886 87.957 L 30.931 88.419 L 30.931 88.882 L 30.931 89.398 L 30.931 89.643 L 30.931 89.888 L 30.931 90.350 L 30.931 90.812 L 30.886 91.247 L 30.872 91.465 L 30.849 91.682 L 30.805 92.117 L 30.805 92.552 L 30.760 93.015 L 30.760 93.232 L 30.760 93.477 L 30.716 93.966 L 30.716 94.483 L 30.716 95.027 L 30.716 95.299 L 30.716 95.598 L 30.716 96.196 L 30.760 96.794 L 30.805 97.392 L 30.827 97.691 L 30.849 97.990 L 30.849 98.643 L 30.886 99.241 L 30.931 99.839 L 30.931 100.138 L 30.931 100.438 L 30.975 101.036 L 30.975 101.580 L 30.975 102.151 L 30.998 102.422 L 31.020 102.694 L 31.020 103.211 L 31.020 103.700 L 31.020 104.163 L 31.042 104.407 L 31.064 104.625 L 31.064 105.060 L 31.064 105.495 L 31.064 105.957 L 31.064 106.202 L 31.064 106.447 L 31.064 106.909 L 31.064 107.371 L 31.102 107.860 L 31.102 108.105 L 31.102 108.377 L 31.102 108.921 L 31.146 109.492 L 31.191 110.036 L 31.191 110.335 L 31.191 110.634 L 31.235 111.232 L 31.279 111.857 L 31.317 112.456 L 31.339 112.755 L 31.361 113.054 L 31.450 113.598 L 31.532 114.169 L 31.621 114.685 L 31.658 114.930 L 31.702 115.202 L 31.747 115.718 L 31.836 116.181 L 31.880 116.616 L 31.895 116.806 L 31.917 116.996 L 31.962 117.377 L 32.006 117.731 L 32.051 118.057 L 32.073 118.220 L 32.088 118.410 L 32.132 118.709 L 32.132 119.009 L 32.177 119.362 L 32.177 119.525 L 32.177 119.688 L 32.221 120.042 L 32.266 120.395 L 32.303 120.722 L 32.325 120.885 L 32.347 121.075 L 32.392 121.401 L 32.436 121.809 L 32.481 122.190 L 32.518 122.407 L 32.562 122.625 L 32.651 123.005 L 32.688 123.441 L 32.777 123.821 L 32.800 124.039 L 32.822 124.256 L 32.866 124.637 L 32.904 125.018 L 32.948 125.398 L 32.948 125.589 L 32.948 125.779 L 32.948 126.132 L 32.948 126.486 L 32.948 126.812 L 32.948 126.975 L 32.948 127.166 L 32.904 127.465 L 32.904 127.764 L 32.866 128.117 L 32.866 128.280 L 32.866 128.444 L 32.866 128.797 L 32.866 129.178 L 32.866 129.558 L 32.866 129.776 L 32.866 129.993 L 32.866 130.456 L 32.866 130.945 L 32.866 131.462 L 32.866 131.706 L 32.866 131.978 L 32.866 132.468 L 32.866 132.984 L 32.866 133.501 L 32.866 133.746 L 32.866 134.018 L 32.866 134.507 L 32.866 134.969 L 32.866 135.431 L 32.866 135.676 L 32.866 135.921 L 32.866 136.329 L 32.866 136.737 L 32.822 137.117 L 32.800 137.335 L 32.777 137.552 L 32.733 137.933 L 32.688 138.368 L 32.651 138.776 L 32.629 138.993 L 32.607 139.211 L 32.562 139.592 L 32.518 139.999 L 32.481 140.407 L 32.459 140.598 L 32.436 140.815 L 32.392 141.141 L 32.347 141.495 L 32.303 141.821 L 32.266 142.012 L 32.221 142.175 L 32.132 142.528 L 32.051 142.827 L 31.962 143.126 L 31.917 143.262 L 31.880 143.425 L 31.791 143.725 L 31.665 144.024 L 31.532 144.323 L 31.472 144.459 L 31.406 144.622 L 31.279 144.921 L 31.102 145.220 L 30.931 145.519 L 30.849 145.682 L 30.760 145.818 L 30.590 146.117 L 30.419 146.416 L 30.249 146.715 L 30.160 146.879 L 30.078 147.015 L 29.900 147.286 L 29.730 147.531 L 29.515 147.803 L 29.411 147.912 L 29.300 148.048 L 29.084 148.265 L 28.877 148.483 L 28.662 148.646 L 28.536 148.728 L 28.402 148.836 L 28.143 148.999 L 27.883 149.163 L 27.631 149.353 L 27.483 149.434 L 27.327 149.516 L 27.030 149.652 L 26.726 149.761 L 26.430 149.897 L 26.281 149.951 L 26.126 150.033 L 25.829 150.169 L 25.488 150.277 L 25.139 150.413 L 24.969 150.495 L 24.798 150.576 L 24.413 150.712 L 24.027 150.876 L 23.641 151.012 L 23.449 151.066 L 23.256 151.147 L 22.870 151.283 L 22.440 151.392 L 22.010 151.474 L 21.795 151.501 L 21.580 151.528 L 21.150 151.528 L 20.720 151.528 L 20.290 151.474 L 20.082 151.474 L 19.867 151.447 L 19.481 151.392 L 19.096 151.311 L 18.666 151.229 L 18.450 151.175 L 18.235 151.093 L 17.850 150.957 L 17.464 150.848 L 17.079 150.658 L 16.886 150.576 L 16.693 150.468 L 16.300 150.196 L 15.959 149.897 L 15.662 149.543 L 15.514 149.353 L 15.358 149.163 L 15.099 148.728 L 14.846 148.265 L 14.631 147.721 L 14.550 147.422 L 14.461 147.096 L 14.290 146.471 L 14.157 145.791 L 14.031 145.084 L 13.986 144.731 L 13.942 144.377 L 13.860 143.643 L 13.816 142.909 L 13.771 142.175 L 13.749 141.821 L 13.727 141.441 L 13.690 140.761 L 13.645 140.081 L 13.601 139.374 L 13.556 139.102 L 13.512 138.776 L 13.475 138.232 L 13.386 137.661 L 13.297 137.199 L 13.282 136.981 L 13.260 136.764 L 13.215 136.329 L 13.126 136.002 L 13.089 135.703 L 13.067 135.540 L 13.044 135.404 L 13.000 135.132 L 13.000 134.752 L 13.022 134.643 L 13.044 134.534 L 13.044 134.534 L 13.044 134.534"/>
  <path d="M 42.945 43.203 L 42.945 43.203 L 42.945 43.203 L 43.074 43.332 L 43.074 43.332 L 43.074 43.332 L 43.418 43.459 L 43.418 43.459 L 43.674 43.675 L 43.674 43.675 L 43.674 43.675 L 43.932 43.974 L 43.932 43.974 L 44.232 44.361 L 44.294 44.464 L 44.361 44.576 L 44.490 44.832 L 44.661 45.090 L 44.790 45.305 L 44.875 45.433 L 44.962 45.563 L 45.091 45.777 L 45.219 46.034 L 45.348 46.248 L 45.390 46.373 L 45.434 46.506 L 45.605 46.892 L 45.692 47.106 L 45.692 47.106 L 45.692 47.106 L 45.734 47.449 L 45.734 47.449 L 45.734 47.793 L 45.734 47.964 L 45.734 48.051 L 45.734 48.051 L 45.734 48.051 L 45.734 48.051 L 45.820 47.750 L 45.820 47.464 L 45.820 47.364 L 45.820 47.364 L 45.820 46.892 L 45.820 46.892 L 45.820 46.892"/>
  <path d="M 171.350 61.520 L 171.094 61.392 L 170.750 61.264 L 170.409 61.224 L 170.064 61.176 L 169.869 61.176 L 169.635 61.176 L 169.205 61.264 L 168.733 61.392 L 168.264 61.568 L 168.062 61.664 L 167.834 61.776 L 167.405 62.080 L 167.018 62.504 L 166.677 63.024 L 166.492 63.288 L 166.290 63.584 L 165.945 64.184 L 165.558 64.913 L 165.086 65.809 L 164.877 66.273 L 164.660 66.753 L 164.273 67.745 L 163.886 68.770 L 163.541 69.762 L 163.396 70.242 L 163.243 70.746 L 162.984 71.642 L 162.771 72.331 L 162.601 73.019 L 162.537 73.355 L 162.469 73.707 L 162.341 74.347 L 162.299 74.947 L 162.256 75.419 L 162.277 75.604 L 162.299 75.812 L 162.384 76.148 L 162.469 76.364 L 162.757 76.524 L 162.856 76.580 L 163.328 76.492 L 163.588 76.324 L 163.730 76.180 L 163.886 76.020 L 164.230 75.636 L 164.617 75.123 L 165.086 74.347 L 165.313 73.915 L 165.558 73.451 L 166.031 72.419 L 166.503 71.306 L 167.018 69.970 L 167.273 69.298 L 167.533 68.602 L 168.047 67.273 L 168.605 65.809 L 169.248 64.184 L 169.613 63.304 L 169.979 62.424 L 170.750 60.623 L 171.396 59.159 L 172.081 57.447 L 172.365 56.678 L 172.681 55.814 L 173.239 54.230 L 173.668 52.813 L 173.967 51.653 L 174.094 51.117 L 174.226 50.541 L 174.439 49.549 L 174.613 48.692 L 174.698 48.052 L 174.719 47.740 L 174.741 47.404 L 174.741 46.764 L 174.698 46.124 L 174.613 45.563 L 174.549 45.323 L 174.481 45.091 L 174.311 44.659 L 174.055 44.363 L 173.796 44.107 L 173.654 44.019 L 173.498 43.931 L 173.196 43.843 L 172.894 43.803 L 172.553 43.891 L 172.390 43.947 L 172.209 44.019 L 171.865 44.235 L 171.566 44.491 L 171.264 44.835 L 171.094 45.067 L 170.924 45.307 L 170.494 45.988 L 170.064 46.852 L 169.677 47.836 L 169.450 48.500 L 169.205 49.212 L 168.822 50.621 L 168.520 51.909 L 168.307 53.326 L 168.264 53.966 L 168.218 54.614 L 168.175 55.862 L 168.218 57.407 L 168.307 58.991 L 168.413 59.807 L 168.520 60.623 L 168.864 62.424 L 169.248 63.968 L 169.720 65.337 L 169.954 65.953 L 170.192 66.585 L 170.664 67.697 L 171.222 68.818 L 171.737 69.762 L 171.975 70.186 L 172.209 70.618 L 172.681 71.386 L 173.153 72.075 L 173.626 72.635 L 173.857 72.907 L 174.098 73.187 L 174.613 73.707 L 175.128 74.179 L 175.685 74.603 L 175.955 74.771 L 176.243 74.947 L 176.800 75.251 L 176.800 75.251 L 176.800 75.251"/>
  <path d="M 118.753 58.475 L 118.753 58.475 L 118.753 58.475 L 119.010 58.305 L 119.161 58.230 L 119.354 58.135 L 119.698 57.959 L 120.083 57.746 L 120.511 57.448 L 120.701 57.278 L 120.942 57.060 L 121.415 56.671 L 121.884 56.246 L 122.400 55.772 L 122.608 55.501 L 122.828 55.213 L 123.260 54.612 L 123.729 53.926 L 124.201 53.239 L 124.435 52.904 L 124.674 52.553 L 125.146 51.909 L 125.618 51.313 L 126.090 50.755 L 126.311 50.510 L 126.562 50.238 L 127.034 49.807 L 127.419 49.467 L 127.807 49.206 L 127.966 49.126 L 128.148 49.036 L 128.448 48.951 L 128.664 48.908 L 128.879 48.993 L 128.879 48.993 L 128.879 48.993 L 129.136 49.339 L 129.221 49.595 L 129.264 49.941 L 129.264 50.159 L 129.264 50.409 L 129.180 51.095 L 129.049 52.000 L 128.879 53.069 L 128.772 53.628 L 128.664 54.187 L 128.407 55.256 L 128.107 56.416 L 127.807 57.576 L 127.637 58.182 L 127.463 58.821 L 127.163 59.933 L 126.904 60.923 L 126.691 61.779 L 126.606 62.162 L 126.519 62.551 L 126.347 63.365 L 126.218 64.136 L 126.134 64.913 L 126.090 65.291 L 126.046 65.685 L 125.962 66.414 L 125.918 67.143 L 125.874 67.787 L 125.874 68.084 L 125.874 68.388 L 125.874 68.899 L 125.874 69.372 L 125.874 69.761 L 125.874 69.925 L 125.874 70.101 L 125.874 70.362 L 125.874 70.362 L 125.918 70.702 L 125.918 70.702 L 125.918 70.702"/>
  <path d="M 204.000 56.373 L 204.000 56.373 L 203.744 56.631 L 203.441 56.933 L 203.290 57.129 L 203.144 57.317 L 202.801 57.746 L 202.412 58.218 L 201.899 58.778 L 201.601 59.137 L 201.295 59.508 L 200.695 60.276 L 200.096 61.138 L 199.322 62.164 L 198.915 62.700 L 198.507 63.235 L 197.651 64.355 L 196.750 65.469 L 195.761 66.672 L 195.230 67.307 L 194.690 67.956 L 193.660 69.158 L 192.671 70.404 L 191.646 71.733 L 191.152 72.375 L 190.657 73.017 L 189.756 74.175 L 188.982 75.251 L 188.341 76.196 L 188.039 76.599 L 187.742 77.008 L 187.225 77.782 L 186.794 78.468 L 186.451 79.022 L 186.300 79.324 L 186.154 79.626 L 185.851 80.187 L 185.595 80.696 L 185.421 81.169 L 185.362 81.364 L 185.293 81.559 L 185.252 81.899 L 185.252 82.157 L 185.252 82.157 L 185.252 82.157 L 185.252 82.157"/>
  <path d="M 185.166 61.306 L 185.166 61.306 L 185.422 60.923 L 185.724 60.536 L 185.917 60.342 L 186.110 60.149 L 186.497 59.807 L 186.925 59.507 L 187.397 59.206 L 187.635 59.075 L 187.869 58.947 L 188.297 58.692 L 188.769 58.519 L 189.200 58.474 L 189.412 58.453 L 189.628 58.432 L 190.056 58.432 L 190.442 58.474 L 190.784 58.560 L 190.948 58.622 L 191.130 58.692 L 191.431 58.906 L 191.688 59.161 L 191.900 59.507 L 191.985 59.717 L 192.075 59.935 L 192.160 60.404 L 192.246 60.923 L 192.246 61.520 L 192.246 61.861 L 192.246 62.207 L 192.201 63.109 L 192.160 64.010 L 192.115 64.998 L 192.093 65.463 L 192.075 65.941 L 192.030 66.797 L 192.030 67.612 L 192.075 68.386 L 192.093 68.773 L 192.115 69.159 L 192.201 69.929 L 192.331 70.658 L 192.547 71.345 L 192.673 71.646 L 192.803 71.946 L 193.101 72.547 L 193.447 73.062 L 193.833 73.535 L 194.045 73.749 L 194.261 73.963 L 194.733 74.305 L 195.246 74.651 L 195.763 74.865 L 196.038 74.947 L 196.321 75.033 L 196.879 75.165 L 197.436 75.252 L 197.994 75.293 L 198.247 75.272 L 198.507 75.252 L 199.024 75.206 L 199.496 75.120 L 199.969 75.033 L 200.177 74.972 L 200.396 74.906 L 200.396 74.906 L 200.396 74.906"/>
  <path d="M 103.995 75.078 L 105.628 74.821 L 107.253 74.563 L 108.932 74.349 L 110.730 74.134 L 111.574 74.056 L 112.574 73.963 L 113.519 74.006 L 114.510 74.092 L 115.446 74.177 L 115.951 74.240 L 116.483 74.306 L 117.465 74.477 L 118.492 74.649 L 119.483 74.864 L 119.951 74.949 L 120.428 75.035 L 121.373 75.207 L 122.227 75.335 L 123.043 75.507 L 123.484 75.570 L 123.942 75.636 L 124.805 75.765 L 125.750 75.894 L 126.649 75.979 L 127.053 76.001 L 127.466 76.022 L 128.236 76.022 L 128.961 76.022 L 129.732 75.979 L 130.117 75.958 L 130.512 75.936 L 131.237 75.894 L 131.971 75.850 L 132.696 75.808 L 133.072 75.787 L 133.466 75.765 L 134.200 75.765 L 134.925 75.765 L 135.659 75.808 L 135.971 75.828 L 136.302 75.850 L 136.898 75.936 L 137.458 76.022 L 137.971 76.151 L 138.201 76.214 L 138.449 76.280 L 138.871 76.408 L 139.302 76.537 L 139.687 76.666 L 139.862 76.708 L 140.036 76.751 L 140.375 76.837 L 140.678 76.880 L 140.981 76.880 L 141.119 76.860 L 141.275 76.837 L 141.577 76.794 L 141.577 76.794 L 141.577 76.794"/>
  <path d="M 137.931 82.626 L 137.931 82.626 L 137.931 82.626 L 137.802 82.501 L 137.802 82.501 L 137.802 82.501 L 137.586 82.241 L 137.586 82.241 L 137.373 82.030 L 137.373 82.030 L 137.373 82.030 L 137.158 81.855 L 137.158 81.855 L 136.857 81.730 L 136.857 81.730 L 136.857 81.730 L 136.559 81.685 L 136.559 81.685 L 136.258 81.730 L 136.258 81.730 L 136.258 81.730 L 135.915 81.770 L 135.915 81.770 L 135.529 81.941 L 135.529 81.941 L 135.529 81.941 L 135.098 82.030 L 135.098 82.030 L 134.714 82.201 L 134.714 82.201 L 134.714 82.201 L 134.241 82.416 L 134.241 82.416 L 133.811 82.671 L 133.686 82.734 L 133.554 82.801 L 133.341 82.972 L 133.126 83.187 L 132.910 83.402 L 132.804 83.528 L 132.697 83.658 L 132.482 83.958 L 132.267 84.303 L 132.054 84.689 L 131.950 84.895 L 131.839 85.119 L 131.623 85.545 L 131.410 85.975 L 131.195 86.406 L 131.110 86.621 L 131.024 86.831 L 130.853 87.262 L 130.723 87.647 L 130.637 88.033 L 130.593 88.230 L 130.552 88.418 L 130.466 88.808 L 130.422 89.194 L 130.380 89.620 L 130.380 89.835 L 130.380 90.050 L 130.380 90.521 L 130.380 90.996 L 130.380 91.511 L 130.380 91.789 L 130.380 92.067 L 130.422 92.623 L 130.466 93.184 L 130.508 93.784 L 130.531 94.085 L 130.552 94.385 L 130.637 94.941 L 130.723 95.501 L 130.809 96.057 L 130.871 96.308 L 130.938 96.573 L 131.110 97.043 L 131.325 97.514 L 131.538 97.944 L 131.642 98.128 L 131.753 98.330 L 132.010 98.675 L 132.267 98.975 L 132.524 99.231 L 132.670 99.334 L 132.825 99.446 L 133.126 99.661 L 133.427 99.832 L 133.725 99.962 L 133.897 100.002 L 134.070 100.047 L 134.413 100.047 L 134.755 100.002 L 135.142 99.962 L 135.313 99.917 L 135.485 99.877 L 135.829 99.702 L 136.172 99.531 L 136.515 99.316 L 136.686 99.191 L 136.857 99.061 L 137.158 98.760 L 137.415 98.460 L 137.630 98.160 L 137.714 98.012 L 137.802 97.859 L 137.931 97.559 L 138.059 97.259 L 138.144 97.003 L 138.165 96.877 L 138.188 96.743 L 138.188 96.487 L 138.188 96.487 L 138.188 96.057 L 138.167 95.950 L 138.144 95.842 L 138.103 95.627 L 138.059 95.412 L 137.973 95.201 L 137.931 95.093 L 137.887 94.986 L 137.760 94.771 L 137.586 94.555 L 137.415 94.340 L 137.329 94.233 L 137.244 94.125 L 137.072 93.910 L 136.857 93.699 L 136.644 93.484 L 136.538 93.376 L 136.429 93.269 L 136.172 93.098 L 135.915 92.924 L 135.656 92.798 L 135.529 92.731 L 135.399 92.668 L 135.142 92.583 L 134.841 92.498 L 134.584 92.453 L 134.434 92.453 L 134.283 92.453 L 134.026 92.453 L 133.769 92.498 L 133.512 92.538 L 133.380 92.583 L 133.255 92.623 L 132.996 92.708 L 132.739 92.798 L 132.739 92.798 L 132.739 92.798 L 132.353 93.098 L 132.010 93.399 L 131.709 93.699 L 131.542 93.843 L 131.366 93.999 L 131.024 94.300 L 130.723 94.555 L 130.466 94.811 L 130.316 94.963 L 130.165 95.111 L 129.908 95.412 L 129.651 95.757 L 129.350 96.057 L 129.223 96.227 L 129.093 96.398 L 128.878 96.743 L 128.792 97.043 L 128.748 97.344 L 128.728 97.469 L 128.707 97.599 L 128.748 97.859 L 128.748 97.859 L 128.748 97.859"/>
  <path d="M 105.025 95.714 L 105.025 95.714 L 105.025 95.714 L 105.283 96.141 L 105.400 96.337 L 105.541 96.573 L 105.840 97.129 L 106.227 97.815 L 106.611 98.500 L 106.831 98.861 L 107.084 99.275 L 107.471 100.005 L 107.899 100.690 L 108.327 101.376 L 108.515 101.710 L 108.714 102.061 L 109.101 102.791 L 109.485 103.521 L 109.958 104.381 L 110.163 104.808 L 110.389 105.280 L 110.773 106.094 L 111.160 106.909 L 111.459 107.639 L 111.606 107.995 L 111.761 108.369 L 112.104 109.099 L 112.448 109.785 L 112.791 110.430 L 112.958 110.719 L 113.134 111.031 L 113.477 111.632 L 113.820 112.144 L 114.163 112.616 L 114.333 112.807 L 114.506 113.003 L 114.849 113.346 L 115.149 113.604 L 115.407 113.777 L 115.533 113.840 L 115.665 113.902 L 115.923 113.947 L 116.178 113.902 L 116.395 113.817 L 116.498 113.737 L 116.609 113.648 L 116.823 113.390 L 117.037 113.047 L 117.037 113.047 L 117.037 113.047 L 117.037 113.047"/>
  <path d="M 118.367 96.400 L 118.367 96.400 L 118.238 96.528 L 117.984 96.719 L 117.895 96.787 L 117.681 97.003 L 117.379 97.214 L 116.996 97.517 L 116.826 97.685 L 116.653 97.861 L 116.137 98.288 L 115.665 98.758 L 115.108 99.273 L 114.813 99.588 L 114.507 99.920 L 113.906 100.646 L 113.261 101.420 L 112.531 102.234 L 112.192 102.617 L 111.845 103.008 L 111.159 103.779 L 110.474 104.680 L 109.788 105.538 L 109.445 105.957 L 109.058 106.440 L 108.372 107.254 L 107.812 107.941 L 107.343 108.543 L 107.119 108.803 L 106.868 109.098 L 106.396 109.657 L 105.924 110.215 L 105.452 110.730 L 105.253 110.950 L 105.024 111.201 L 104.637 111.632 L 104.339 111.975 L 104.036 112.274 L 103.915 112.374 L 103.782 112.490 L 103.564 112.618 L 103.564 112.618 L 103.266 112.745 L 103.266 112.745 L 103.266 112.745"/>
  <path d="M 38.356 154.143 L 38.055 154.102 L 37.455 154.102 L 37.069 154.102 L 36.904 154.102 L 36.726 154.102 L 36.340 154.143 L 35.954 154.231 L 35.525 154.319 L 35.294 154.419 L 35.053 154.531 L 34.621 154.830 L 34.149 155.176 L 33.680 155.604 L 33.436 155.909 L 33.162 156.249 L 32.605 156.976 L 32.004 157.833 L 31.361 158.865 L 31.044 159.416 L 30.718 159.979 L 30.117 161.053 L 29.559 162.126 L 29.045 163.241 L 28.834 163.792 L 28.616 164.355 L 28.273 165.428 L 28.015 166.373 L 27.844 167.188 L 27.781 167.605 L 27.715 168.044 L 27.672 168.819 L 27.715 169.675 L 27.844 170.789 L 27.949 171.341 L 28.058 171.904 L 28.401 173.065 L 28.787 174.051 L 29.131 174.825 L 29.315 175.147 L 29.517 175.511 L 29.946 176.109 L 30.417 176.714 L 30.975 177.224 L 31.295 177.441 L 31.618 177.658 L 32.347 177.957 L 33.162 178.127 L 34.238 178.086 L 34.753 177.916 L 35.310 177.740 L 36.383 177.095 L 37.498 176.197 L 38.441 175.036 L 38.781 174.467 L 39.128 173.881 L 39.685 172.766 L 40.114 171.693 L 40.500 170.619 L 40.649 170.045 L 40.800 169.464 L 40.972 168.432 L 41.101 167.358 L 41.186 166.455 L 41.186 166.097 L 41.186 165.728 L 41.144 164.953 L 41.058 164.226 L 40.929 163.499 L 40.843 163.135 L 40.758 162.766 L 40.586 162.079 L 40.371 161.440 L 40.114 160.883 L 39.989 160.631 L 39.857 160.367 L 39.599 159.892 L 39.299 159.463 L 38.999 159.123 L 38.850 158.971 L 38.699 158.824 L 38.398 158.607 L 38.098 158.437 L 37.755 158.308 L 37.587 158.284 L 37.412 158.261 L 37.069 158.220 L 36.683 158.220 L 36.297 158.261 L 36.109 158.308 L 35.911 158.349 L 35.525 158.437 L 35.139 158.519 L 34.753 158.607 L 34.565 158.648 L 34.367 158.695 L 34.024 158.777 L 33.680 158.865 L 33.680 158.865 L 33.680 158.865"/>
  </g>
</svg>
